# xmcd CD database file
#
# Track frame offsets:
#	183
#	12253
#	27800
#	46713
#	59805
#	75995
#	87093
#	100493
#	119713
#	134393
#	150740
#	162818
#
# Disc length: 2354 seconds
#
# Revision: 2
# Processed by: cddbd v1.5.2PL0 Copyright (c) Steve Scherf et al.
# Submitted via: CDex 1.70beta2
#
DISCID=9109300c
DTITLE=Step In Time - With The Music Of Motown
DYEAR=1900
DGENRE=
TTITLE0=Get Ready
TTITLE1=My Girl
TTITLE2=Endless Love
TTITLE3=Never Can Say Good-bye
TTITLE4=How Sweet It Is To Be Loved By You
TTITLE5=Rock'N Robin
TTITLE6=You Can't Hurry Love
TTITLE7=Theme From Mahogany
TTITLE8=With You I'm Born Again
TTITLE9=I'll Be There
TTITLE10=Beauty Is Only Skin Deep
TTITLE11=Ben
EXTD=
EXTT0=
EXTT1=
EXTT2=
EXTT3=
EXTT4=
EXTT5=
EXTT6=
EXTT7=
EXTT8=
EXTT9=
EXTT10=
EXTT11=
PLAYORDER=
